<?xml version="1.0" encoding="UTF-8"?>
<svg version="1.1" xmlns="http://www.w3.org/2000/svg" width="1024" height="1024">
<path d="M0 0 C1.68701235 -0.00159122 3.37402407 -0.0040579 5.06103402 -0.00731641 C9.66422999 -0.01368885 14.26733708 -0.00769381 18.87052715 0.00044787 C23.84736261 0.00705704 28.82418865 0.00206944 33.80102539 -0.00143433 C43.53695318 -0.0064635 53.27284688 -0.00085104 63.00877043 0.00841597 C74.35237067 0.01882344 85.69596363 0.01872917 97.03956775 0.01824339 C117.2805615 0.01774329 137.52153942 0.02689083 157.76252747 0.04142761 C177.39436634 0.05551957 197.02619128 0.06259809 216.65803528 0.06193542 C218.47247242 0.06187549 218.47247242 0.06187549 220.32356485 0.06181435 C221.53111928 0.06177399 222.7386737 0.06173364 223.98282069 0.06169206 C246.3497014 0.06100189 268.7165762 0.0668934 291.08345499 0.07584528 C298.98724887 0.07885889 306.89104166 0.07992451 314.79483604 0.08037758 C324.4267812 0.08106034 334.05871641 0.08553391 343.69065734 0.09471039 C348.60326142 0.09932084 353.51585278 0.10237664 358.42845917 0.10111618 C362.92808675 0.10001767 367.42768627 0.10356071 371.927308 0.1107647 C373.55225383 0.11257131 375.17720256 0.11271491 376.80214848 0.11099742 C384.27808803 0.10397249 391.69286315 0.12093371 399.12601262 1.02021903 C401.49027454 1.30439822 403.82206911 1.38043147 406.20222473 1.37223816 C407.33724426 1.37610535 407.33724426 1.37610535 408.49519348 1.38005066 C411.13836199 1.28366747 411.13836199 1.28366747 414.21513844 0.747715 C417.9697062 0.25316795 421.54254867 0.11579866 425.32763672 0.10679626 C426.38124837 0.10233958 426.38124837 0.10233958 427.45614511 0.09779286 C429.79233439 0.0891734 432.12847202 0.08760333 434.4646759 0.08610535 C436.14752307 0.08147204 437.83036919 0.0764467 439.51321411 0.07106018 C444.07598005 0.0579755 448.63873129 0.05149783 453.20151305 0.04704952 C456.06093207 0.04410983 458.92034715 0.04000316 461.77976418 0.03554535 C470.75097356 0.02187501 479.72217386 0.01220852 488.69339293 0.00834346 C499.00148299 0.00387668 509.30943953 -0.01360876 519.61748904 -0.04265714 C527.61363303 -0.06439656 535.60973981 -0.07436746 543.60591298 -0.07569766 C548.36732429 -0.07673782 553.12861003 -0.08247393 557.88998985 -0.10051727 C590.8322247 -0.21811294 619.5881002 2.11852555 649.38972473 17.43473816 C650.36038879 17.92345398 650.36038879 17.92345398 651.35066223 18.42204285 C663.80027488 24.99334718 674.23342982 33.7979615 684.0572052 43.76823425 C685.76411071 45.49661641 687.49143085 47.20249367 689.22175598 48.90739441 C699.72523523 59.38514016 708.50264481 70.84841071 715.01472473 84.24723816 C715.57804504 85.3906366 716.14136536 86.53403503 716.72175598 87.71208191 C720.37090488 95.41040943 723.06699266 103.22242106 725.32722473 111.43473816 C725.56956848 112.31234802 725.81191223 113.18995789 726.06159973 114.09416199 C730.0942677 129.45446897 730.30004903 144.16721387 730.26869202 159.95695496 C730.27099813 162.48328841 730.27417566 165.00962119 730.27814651 167.53595257 C730.28474451 173.01588756 730.28516694 178.49576859 730.28005219 183.97570419 C730.27246698 192.1247446 730.27636519 200.2737519 730.2824688 208.42279211 C730.29298636 222.97950253 730.29209305 237.53619537 730.28631097 252.09290746 C730.28127589 264.83188343 730.27996831 277.57085295 730.28235626 290.30982971 C730.28258542 291.5783257 730.28258542 291.5783257 730.2828192 292.87244787 C730.2834419 296.30544641 730.2840787 299.73844494 730.28473873 303.17144347 C730.29085398 335.36243585 730.28531417 367.55341705 730.27454494 399.7444077 C730.26505403 428.3316202 730.2659033 456.91881488 730.27546692 485.50602722 C730.28618083 517.63889877 730.29042025 549.77176044 730.28424239 581.90463352 C730.28360098 585.33130455 730.28297529 588.75797558 730.28235626 592.18464661 C730.28219811 593.0283537 730.28203995 593.87206079 730.28187701 594.74133476 C730.27960398 607.47095623 730.28225904 620.20057056 730.28731537 632.93019104 C730.2930372 647.40723632 730.29159714 661.88426129 730.28075388 676.36130404 C730.27488827 684.45928015 730.2744879 692.55721227 730.28204623 700.65518722 C730.28706995 706.7059094 730.28160749 712.75657477 730.27209708 718.80729353 C730.26986554 721.25193768 730.27099382 723.69658773 730.27584866 726.14122808 C730.30469629 741.87606856 729.44870714 756.14234184 725.20222473 771.37223816 C724.93724182 772.32872253 724.67225891 773.28520691 724.39924622 774.27067566 C722.50111463 780.93661782 720.2265398 787.09595491 717.01472473 793.24723816 C716.49136536 794.3493866 715.96800598 795.45153503 715.42878723 796.58708191 C709.68916467 808.54679317 702.4959717 819.06264451 694.01472473 829.24723816 C693.50167786 829.88403503 692.98863098 830.52083191 692.46003723 831.17692566 C689.33658658 834.97571699 685.94403104 838.20225976 682.19050598 841.37614441 C680.69749684 842.66007866 679.23753783 843.9831585 677.80769348 845.33708191 C659.54401738 862.57096532 634.979534 874.55708419 610.48381847 879.72618902 C608.62771321 880.11788012 606.77853991 880.54264863 604.93350607 880.98355544 C592.46138436 883.70093528 580.22557408 883.66719119 567.50506592 883.62818909 C565.03689145 883.63165028 562.56871852 883.63641793 560.1005488 883.64237082 C554.75669254 883.65224987 549.41295625 883.65291496 544.06910515 883.64522934 C536.1219457 883.633831 528.17486241 883.63970954 520.2277034 883.64885426 C506.02797852 883.66461661 491.82829424 883.66329587 477.62856554 883.65461752 C465.19745694 883.64705789 452.76636319 883.64510676 440.33525276 883.64868546 C439.09627673 883.64902919 439.09627673 883.64902919 437.83227089 883.64937987 C434.478889 883.65031396 431.12550711 883.65126917 427.77212523 883.65225916 C396.33479833 883.66142932 364.89749721 883.65312771 333.46017429 883.63696847 C305.57054772 883.6227417 277.68096226 883.62399855 249.79133606 883.63835144 C218.42047593 883.65444211 187.04963858 883.66076962 155.67877489 883.65151465 C152.32948562 883.65055259 148.98019634 883.64961406 145.63090706 883.64868546 C144.80629466 883.64844822 143.98168225 883.64821099 143.1320816 883.64796657 C130.71799133 883.64456427 118.30391761 883.64852625 105.88982964 883.65612411 C91.75898234 883.66472985 77.62818183 883.66249857 63.49734031 883.64628188 C55.60361428 883.63752001 47.70998971 883.63682928 39.81626646 883.64822041 C33.89995001 883.65581093 27.98372147 883.64748617 22.06741507 883.63329668 C19.69065082 883.62997455 17.31387281 883.63158421 14.93711757 883.63892405 C-3.90621317 883.69260296 -23.09063797 882.89106862 -41.29777527 877.55973816 C-42.18892029 877.30700134 -43.08006531 877.05426453 -43.99821472 876.79386902 C-57.34949987 872.84299063 -69.4874041 867.09120899 -80.98527527 859.24723816 C-81.82316589 858.74837097 -82.66105652 858.24950378 -83.52433777 857.73551941 C-91.67392639 852.80695867 -98.63111821 846.13428696 -105.52726746 839.62174988 C-106.87212892 838.35390493 -108.22896088 837.09878974 -109.58683777 835.84489441 C-130.66177722 815.74007122 -148.81720994 783.37794161 -149.71677011 753.80923301 C-149.92046873 749.36065738 -150.49136765 744.98434538 -151.06568205 740.57056429 C-152.88765188 726.38569094 -153.41422013 712.46606372 -153.37295532 698.18041992 C-153.37714133 695.7737361 -153.38262571 693.36705425 -153.38927513 690.96037596 C-153.40209248 685.10770124 -153.40129248 679.25514595 -153.39431275 673.40246404 C-153.38671862 666.37548632 -153.39672629 659.3485586 -153.40701594 652.3215882 C-153.42657562 638.55904781 -153.42905118 624.79654529 -153.42382074 611.03399431 C-153.4192467 598.99135371 -153.41988372 586.94872801 -153.42566109 574.90608788 C-153.42641798 573.2847779 -153.42717396 571.66346792 -153.42792903 570.04215794 C-153.42907433 567.59843031 -153.43022422 565.15470268 -153.43138827 562.71097505 C-153.44207604 540.02510585 -153.44683595 517.33924157 -153.43891811 494.65337086 C-153.43862094 493.80014262 -153.43832377 492.94691439 -153.43801759 492.06783076 C-153.43556915 485.14090584 -153.43295731 478.21398099 -153.43033346 471.28705614 C-153.42022795 444.261797 -153.42859921 417.23659998 -153.451828 390.21134949 C-153.47793875 359.78456598 -153.49073896 329.35781985 -153.48364025 298.93102473 C-153.48292428 295.68299688 -153.48224988 292.43496902 -153.48159981 289.18694115 C-153.48143 288.38730731 -153.48126019 287.58767347 -153.48108523 286.7638083 C-153.47878935 274.73197787 -153.48672481 262.70018235 -153.49989128 250.66835976 C-153.514846 236.97874821 -153.51558724 223.2892181 -153.49782037 209.59960822 C-153.48913751 202.62353528 -153.48658317 195.64760368 -153.50247192 188.67153931 C-153.51638759 182.27189275 -153.51146777 175.87253333 -153.49223269 169.4729031 C-153.48849353 167.17180659 -153.49133358 164.8706867 -153.50184434 162.56961117 C-153.63885245 130.24820489 -147.17347689 96.03000524 -127.98527527 69.24723816 C-127.54135437 68.62043152 -127.09743347 67.99362488 -126.64006042 67.3478241 C-116.44456328 53.02902421 -116.44456328 53.02902421 -110.21183777 48.13005066 C-108.31830134 46.52884968 -106.65351331 44.90526384 -104.94621277 43.11442566 C-86.77217397 24.05122549 -64.13268073 11.69454883 -38.86027527 4.49723816 C-38.16893494 4.29848083 -37.4775946 4.09972351 -36.76530457 3.89494324 C-24.59227804 0.59380748 -12.53010554 -0.04318935 0 0 Z " fill="#1D7351" transform="translate(222.9852752685547,70.75276184082031)"/>
<path d="M0 0 C0.41302681 31.32437697 0.52580257 61.58425807 -8 92 C-8.24685547 92.88365234 -8.49371094 93.76730469 -8.74804688 94.67773438 C-19.88619178 134.04384958 -41.72097174 171.37992491 -78.08837891 192.1953125 C-82.63521181 194.66578357 -87.29071874 196.86019218 -92 199 C-93.17175781 199.55429687 -94.34351563 200.10859375 -95.55078125 200.6796875 C-104.17842262 204.60756047 -112.78449231 206.9792266 -122 209 C-122.928125 209.21527344 -123.85625 209.43054688 -124.8125 209.65234375 C-137.21270346 212.37482432 -149.89111103 212.18639275 -162.52001953 212.18530273 C-165.38979458 212.18751139 -168.25919775 212.20579081 -171.12890625 212.22460938 C-172.9687487 212.22754024 -174.80859295 212.22952709 -176.6484375 212.23046875 C-177.49852386 212.23765427 -178.34861023 212.24483978 -179.22445679 212.25224304 C-183.89315313 212.23432599 -187.6073354 211.7764545 -192 210 C-195.18578161 208.91027366 -197.65494139 208.35436473 -201 209 C-204.69927588 211.76951136 -207.25442924 215.31373369 -210 219 C-210.89767764 220.1607443 -211.79614345 221.32087939 -212.6953125 222.48046875 C-219.14119108 230.92822892 -224.71077787 239.79283556 -230 249 C-231.33156996 245.00529013 -230.02508284 242.56129076 -228.5625 238.8125 C-228.15849976 237.75869141 -228.15849976 237.75869141 -227.74633789 236.68359375 C-223.86222472 226.80913924 -219.23284318 217.00446666 -213.375 208.140625 C-211.88960897 205.82814123 -210.52965511 203.45372133 -209.15869141 201.07226562 C-200.11562957 185.52383859 -188.9873334 171.37224151 -177 158 C-176.55092285 157.49452637 -176.1018457 156.98905273 -175.63916016 156.46826172 C-165.73860999 145.34684839 -155.45545441 134.42986809 -143.75 125.19140625 C-141.28520986 123.22727661 -138.89960216 121.19398842 -136.5234375 119.12426758 C-119.3584379 104.25022467 -96.72861363 85.24287121 -75 78 C-82.17606048 79.33953129 -88.41149079 81.64863707 -95.0625 84.625 C-96.07328613 85.07230469 -97.08407227 85.51960938 -98.12548828 85.98046875 C-123.91277071 97.4833582 -148.5267556 111.51268012 -170 130 C-171.04550082 130.86364541 -172.09245783 131.72553007 -173.140625 132.5859375 C-194.35088973 150.15049586 -210.7206666 170.24940938 -226 193 C-226.66 192.67 -227.32 192.34 -228 192 C-228.81640625 189.33984375 -228.81640625 189.33984375 -229.5625 185.9375 C-229.81128906 184.83277344 -230.06007813 183.72804688 -230.31640625 182.58984375 C-231.63463213 175.66727468 -232.17304069 168.94753872 -232.23828125 161.91796875 C-232.246353 161.06431229 -232.25442474 160.21065582 -232.26274109 159.33113098 C-232.27650074 157.52847267 -232.28725876 155.72578919 -232.29516602 153.9230957 C-232.30659772 152.1189789 -232.3269068 150.31489351 -232.35668945 148.51098633 C-232.82065721 120.29708097 -225.8144612 94.64944826 -205.8828125 73.91796875 C-197.6114165 65.49360477 -189.26968134 58.86650603 -179 53 C-178.25363281 52.53980469 -177.50726563 52.07960938 -176.73828125 51.60546875 C-170.27284594 47.72620757 -163.22603908 45.26298478 -156.14599609 42.76171875 C-154.09745007 42.03458979 -152.05878487 41.28395748 -150.01953125 40.53125 C-129.99338429 33.32010469 -108.82899595 29.55905662 -88.02587891 25.29956055 C-59.47997546 19.45187702 -31.74686243 13.02650465 -4.9453125 1.234375 C-2 0 -2 0 0 0 Z " fill="#FCFDFD" transform="translate(683,288)"/>
<path d="M0 0 C3.4728143 1.66527722 6.7464589 3.60607527 10.0625 5.5625 C36.70884598 20.80545365 65.81326613 29.75150899 95.69482422 36.27539062 C98.74224055 36.94349017 101.77890446 37.6478599 104.81640625 38.359375 C118.23429969 41.38485469 131.78970705 43.10115127 145.4375 44.6875 C146.30303497 44.79032288 147.16856995 44.89314575 148.06033325 44.99908447 C178.36263311 48.55291391 208.76829935 49.43960435 239.25 49.4375 C240.48091181 49.43886711 240.48091181 49.43886711 241.73669052 49.44026184 C267.84954881 49.46608224 293.45622027 48.39775765 319.33837891 44.65820312 C323.84618291 44.00936938 328.36186663 43.46758526 332.88671875 42.953125 C347.04928399 41.31899076 360.82722914 39.02604099 374.65649414 35.55761719 C377.05865718 34.98604302 379.46567929 34.5038777 381.890625 34.0390625 C410.15273777 28.49575161 443.79000917 18.7734164 467 1 C467.66 1.33 468.32 1.66 469 2 C451.56330166 28.77792363 431.78028875 54.63138928 406 74 C405.35869141 74.48533203 404.71738281 74.97066406 404.05664062 75.47070312 C393.46244377 83.44785226 382.59027769 90.56284236 371 97 C370.38092773 97.34869141 369.76185547 97.69738281 369.12402344 98.05664062 C344.14649614 112.08052337 317.89110992 121.57232746 289.8125 127.0625 C289.04881104 127.21291748 288.28512207 127.36333496 287.49829102 127.51831055 C284.67102702 128.04994016 281.83796069 128.52845428 279 129 C277.93987701 129.18369141 277.93987701 129.18369141 276.8583374 129.37109375 C263.54838428 131.64298102 250.55718042 132.47521853 237.06152344 132.39111328 C234.00150008 132.3750079 230.94279679 132.39108636 227.8828125 132.41015625 C214.67121786 132.42419282 202.01403623 131.21592521 189 129 C187.86111328 128.82259277 186.72222656 128.64518555 185.54882812 128.46240234 C172.20520651 126.34077547 159.47005352 122.78834054 146.6875 118.5 C145.99184937 118.26684082 145.29619873 118.03368164 144.57946777 117.79345703 C114.94923013 107.7897637 88.58371751 93.27777848 64 74 C63.05125 73.26523437 62.1025 72.53046875 61.125 71.7734375 C55.43159478 67.24921371 50.07235117 62.38726219 44.75 57.4375 C44.08806641 56.82414795 43.42613281 56.2107959 42.74414062 55.57885742 C38.18966132 51.29218789 34.05508741 46.75761621 30 42 C29.1119753 40.98974279 28.22275877 39.98053123 27.33203125 38.97265625 C0 7.40310078 0 7.40310078 0 0 Z " fill="#FCFDFD" transform="translate(277,540)"/>
<path d="M0 0 C-6.30108184 2.2377139 -12.60414822 3.91677089 -19.125 5.375 C-27.96899343 7.42118413 -36.4614642 9.89330162 -45 13 C-46.10601562 13.38929688 -47.21203125 13.77859375 -48.3515625 14.1796875 C-59.90213354 18.39743779 -70.74774115 23.80789581 -80 32 C-80.99 32.86625 -81.98 33.7325 -83 34.625 C-86.08195484 39.82579879 -86.2664737 45.03098914 -86 51 C-85.00871316 54.48864806 -85.00871316 54.48864806 -83 57 C-82.43796875 57.78375 -81.8759375 58.5675 -81.296875 59.375 C-78.67178862 62.37509872 -75.79131522 64.41624434 -72.4375 66.5 C-71.81254639 66.8923584 -71.18759277 67.2847168 -70.54370117 67.68896484 C-65.21486156 70.97464007 -59.82709422 73.69525378 -54 76 C-53.33935547 76.26522461 -52.67871094 76.53044922 -51.99804688 76.80371094 C-39.88525471 81.62410782 -27.71594462 85.174474 -15 88 C-13.95650391 88.2357373 -12.91300781 88.47147461 -11.83789062 88.71435547 C58.83811886 104.53104542 132.46195715 106.1673577 204.5625 101.6875 C205.50769501 101.62891815 206.45289001 101.5703363 207.42672729 101.50997925 C220.74934802 100.64817476 233.96057286 99.11789821 247.19360352 97.36972046 C250.99622456 96.86875532 254.80085739 96.38387705 258.60552979 95.89877319 C270.16756371 94.39294557 281.58361405 92.3578566 293 90 C294.08571289 89.77940918 295.17142578 89.55881836 296.29003906 89.33154297 C309.25203862 86.67599392 321.90281897 83.99027318 334.10791016 78.79296875 C336.17621693 77.92614805 338.26226879 77.11725891 340.35546875 76.3125 C353.02316351 71.38355976 365.00700145 65.69951402 372.9375 54.1875 C374.71364846 48.85905461 375.14791341 44.00068592 373.109375 38.671875 C362.14829048 19.78711493 331.10664253 11.45721345 311.62988281 6.06738281 C304.7800482 4.26581983 297.90155155 2.591326 291 1 C291 0.67 291 0.34 291 0 C321.0952749 0.75928446 360.87820504 14.81669921 383 35.4375 C388.34235722 41.10951265 391.09755282 46.49057052 391.625 54.3125 C391.29864268 62.33638858 387.41022154 69.72311042 382.0625 75.625 C370.39420643 86.07837363 356.22336387 92.78804823 342 99 C341.3188916 99.29890137 340.6377832 99.59780273 339.93603516 99.90576172 C319.77826248 108.55674057 297.41513961 112.67005796 276 117 C275.1426123 117.1762793 274.28522461 117.35255859 273.40185547 117.53417969 C256.08025632 121.05330008 238.57526378 123.2323901 221 125 C220.2389093 125.07732361 219.4778186 125.15464722 218.69366455 125.23431396 C149.72927376 132.13601875 75.38401585 131.84922287 7.55322266 116.56542969 C4.55570818 115.90160835 1.54995324 115.28354587 -1.45703125 114.6640625 C-14.97059225 111.83218706 -28.00308929 108.38630772 -40.99829102 103.71435547 C-42.70394836 103.10565278 -44.42126375 102.5297809 -46.140625 101.9609375 C-66.85585424 94.9992621 -89.77254532 84.67359682 -101.5 65.25 C-104.21891631 59.18099037 -104.25628596 51.62265218 -102.09375 45.38671875 C-101 43.1875 -101 43.1875 -99 40 C-98.34 40 -97.68 40 -97 40 C-96.76023437 39.42894531 -96.52046875 38.85789062 -96.2734375 38.26953125 C-88.05498418 23.62253315 -67.76371503 17.48895677 -53 12 C-52.34660645 11.75507813 -51.69321289 11.51015625 -51.02001953 11.2578125 C-10.80294501 -3.60098167 -10.80294501 -3.60098167 0 0 Z " fill="#CFD1D0" transform="translate(368,443)"/>
<path d="M0 0 C0.79792969 0.00064453 1.59585938 0.00128906 2.41796875 0.00195312 C6.09337757 0.02956471 9.3182662 0.18844547 12.875 1.1875 C12.875 1.8475 12.875 2.5075 12.875 3.1875 C13.535 3.22875 14.195 3.27 14.875 3.3125 C23.06815202 5.70216934 29.77315297 13.1869466 34.1640625 20.265625 C38.554857 28.5417988 39.68329544 39.18582981 36.96875 48.1953125 C31.97856431 59.67913726 24.68361937 68.46431807 13.0859375 73.42578125 C3.90685293 76.58818671 -6.99015533 76.65281704 -15.81640625 72.5078125 C-23.57440048 68.0709224 -28.75868552 62.97785441 -33.125 55.1875 C-33.53878906 54.52363281 -33.95257813 53.85976563 -34.37890625 53.17578125 C-38.80956665 45.07091467 -38.28851898 33.982675 -36.125 25.1875 C-35.795 24.1975 -35.465 23.2075 -35.125 22.1875 C-34.465 22.1875 -33.805 22.1875 -33.125 22.1875 C-33.02058594 21.44242188 -32.91617187 20.69734375 -32.80859375 19.9296875 C-30.96569568 12.53703354 -23.59022878 7.7710468 -17.65234375 3.6328125 C-11.7667343 0.26700802 -6.60940472 -0.1024296 0 0 Z " fill="#FAFCFB" transform="translate(523.125,209.8125)"/>
<path d="M0 0 C4.95 0 9.9 0 15 0 C19.33800361 11.79653298 23.59070676 23.61731297 27.6875 35.5 C28.06640381 36.59868408 28.44530762 37.69736816 28.83569336 38.8293457 C29.20315674 39.89499756 29.57062012 40.96064941 29.94921875 42.05859375 C31.61816213 46.89845296 33.29276811 51.73600107 35 56.5625 C35.37125 57.61566406 35.7425 58.66882813 36.125 59.75390625 C36.801477 61.93554398 36.801477 61.93554398 38 63 C38.19110352 62.47680176 38.38220703 61.95360352 38.57910156 61.41455078 C39.46784976 58.98412927 40.3585466 56.55443061 41.25 54.125 C41.57137939 53.2489209 41.89275879 52.3728418 42.22387695 51.47021484 C43.81220566 47.15852161 45.42596762 42.86965633 47.1875 38.625 C48.61589005 35.13204619 49.7437884 31.61925022 50.8125 28 C53.17507731 20.08064087 56.23751487 12.45231788 59.30737305 4.78662109 C59.91909723 3.20868752 60.46482892 1.60551324 61 0 C65.62 0 70.24 0 75 0 C75 25.41 75 50.82 75 77 C71.7 77 68.4 77 65 77 C64.67 57.2 64.34 37.4 64 17 C60.3200999 27.13930564 60.3200999 27.13930564 56.64208984 37.27929688 C53.58533616 45.69902953 50.47971202 54.09870994 47.3203125 62.48046875 C45.5096506 67.30711482 43.75088812 72.15138674 42 77 C38.7 77 35.4 77 32 77 C27.72105441 64.71114809 23.44815405 52.42020694 19.1875 40.125 C18.8150415 39.05137207 18.44258301 37.97774414 18.05883789 36.87158203 C16.00008711 30.92697993 13.97436499 24.97314928 12 19 C11.67 18.01 11.34 17.02 11 16 C10.67 36.46 10.34 56.92 10 78 C6.7 78 3.4 78 0 78 C0 52.26 0 26.52 0 0 Z " fill="#F1F5F4" transform="translate(540,761)"/>
<path d="M0 0 C6.88936346 6.38649021 8.8013618 11.82864506 9.203125 21.109375 C9.00239015 28.92967007 7.07368667 34.43979811 1.87109375 40.296875 C-4.48720439 46.31656555 -10.16639284 48.3607199 -18.859375 48.609375 C-27.18885598 48.36947059 -32.4207093 45.75615125 -38.5 40.20703125 C-44.62443921 33.48346211 -45.7287864 25.69042616 -45.62890625 16.8828125 C-44.9341412 9.24857064 -41.79448575 4.12974513 -35.984375 -0.765625 C-25.23197214 -8.2940784 -10.46342606 -8.04331391 0 0 Z " fill="#FAFCFB" transform="translate(475.296875,284.765625)"/>
<path d="M0 0 C3.48816854 2.30070691 5.56238449 4.08745231 7 8 C7.3129576 10.9745605 7.32487044 13.94062791 7.34375 16.9296875 C7.3583728 17.79763947 7.37299561 18.66559143 7.38806152 19.55984497 C7.43450143 22.33151669 7.46872551 25.10311818 7.5 27.875 C7.54126622 31.51848935 7.59500624 35.16148527 7.65625 38.8046875 C7.6615271 39.63612274 7.6668042 40.46755798 7.67224121 41.32418823 C7.75072004 45.93116647 8.25007224 49.66272894 10 54 C6.7 54 3.4 54 0 54 C-0.495 51.03 -0.495 51.03 -1 48 C-1.49628906 48.32613281 -1.99257813 48.65226563 -2.50390625 48.98828125 C-12.20811164 55.23064487 -18.36111511 56.43585283 -30 56 C-30 55.34 -30 54.68 -30 54 C-31.0828125 53.9690625 -31.0828125 53.9690625 -32.1875 53.9375 C-35.51187257 52.82937581 -37.13598278 51.2927845 -39.0390625 48.359375 C-41.07485909 43.36091508 -40.93207769 38.2487212 -40 33 C-37.37223503 27.74447006 -33.33696565 25.22017771 -28 23 C-24.66878505 22.26616093 -21.3191524 21.81038465 -17.9375 21.375 C-16.17565175 21.13375639 -14.4139286 20.891597 -12.65234375 20.6484375 C-11.84007324 20.53854492 -11.02780273 20.42865234 -10.19091797 20.31542969 C-7.7725849 19.96725871 -5.38603403 19.52582039 -3 19 C-3.68685626 12.40259263 -3.68685626 12.40259263 -6.9375 6.875 C-12.89721475 5.17222436 -18.66139889 5.26149439 -24.5625 7.125 C-27.58996526 9.45381943 -28.1833202 11.32494088 -29 15 C-32.3 15 -35.6 15 -39 15 C-38.521671 9.97754554 -37.16310458 6.9325084 -34 3 C-24.27997652 -4.6069749 -11.05279695 -5.42256218 0 0 Z " fill="#F1F6F3" transform="translate(728,784)"/>
<path d="M0 0 C1.051875 0.598125 2.10375 1.19625 3.1875 1.8125 C3.78175781 2.14121094 4.37601563 2.46992187 4.98828125 2.80859375 C10.42779598 6.17480308 12.79906035 9.87758936 15.1875 15.8125 C15.1875 20.7625 15.1875 25.7125 15.1875 30.8125 C1.6575 30.8125 -11.8725 30.8125 -25.8125 30.8125 C-24.2948493 37.82584096 -24.2948493 37.82584096 -20.9375 43.1875 C-20.44507813 43.83460938 -19.95265625 44.48171875 -19.4453125 45.1484375 C-16.48504729 48.16535851 -13.67825804 49.11328583 -9.5 49.1875 C-4.51111766 49.05599734 -1.78777353 47.83370788 2.1875 44.8125 C4.14933059 41.72869214 4.14933059 41.72869214 5.1875 38.8125 C8.4875 38.8125 11.7875 38.8125 15.1875 38.8125 C15.1875 40.4625 15.1875 42.1125 15.1875 43.8125 C14.5275 43.8125 13.8675 43.8125 13.1875 43.8125 C12.960625 44.534375 12.73375 45.25625 12.5 46 C9.81028984 51.76366463 5.4457101 54.7526714 -0.296875 57.08203125 C-8.71393599 59.52611573 -17.18543307 57.91844498 -24.8125 53.8125 C-27.41780039 51.7747443 -29.10787418 49.63527267 -30.8125 46.8125 C-31.22371094 46.13832031 -31.63492188 45.46414063 -32.05859375 44.76953125 C-36.28342493 36.27601252 -36.38299937 24.93424243 -34.046875 15.828125 C-33.12720384 13.65302972 -32.122434 11.77285262 -30.8125 9.8125 C-30.235 8.905 -29.6575 7.9975 -29.0625 7.0625 C-20.99579921 -1.00420079 -10.95287035 -3.41154978 0 0 Z " fill="#F4F8F5" transform="translate(662.8125,782.1875)"/>
<path d="M0 0 C3.63487437 3.34186706 5.61010598 7.28271196 7.79296875 11.6484375 C7.79296875 16.2684375 7.79296875 20.8884375 7.79296875 25.6484375 C-5.73703125 25.6484375 -19.26703125 25.6484375 -33.20703125 25.6484375 C-31.17051588 35.19406523 -31.17051588 35.19406523 -25.20703125 41.6484375 C-20.99970921 44.26379985 -16.03690565 44.27252239 -11.20703125 43.6484375 C-8.80619687 42.28958634 -8.80619687 42.28958634 -7.20703125 40.6484375 C-6.54703125 40.6484375 -5.88703125 40.6484375 -5.20703125 40.6484375 C-4.89765625 39.6790625 -4.58828125 38.7096875 -4.26953125 37.7109375 C-3.20703125 34.6484375 -3.20703125 34.6484375 -2.20703125 33.6484375 C-0.68775087 33.57663786 0.83464357 33.56451743 2.35546875 33.5859375 C3.18175781 33.59496094 4.00804687 33.60398437 4.859375 33.61328125 C5.49746094 33.62488281 6.13554687 33.63648438 6.79296875 33.6484375 C6.66972327 39.56422058 4.88602088 42.60231708 0.7890625 46.84765625 C-5.78647051 52.77979072 -11.85778683 53.30703519 -20.6484375 53.01953125 C-29.09226223 52.13900068 -33.12675511 48.1681213 -38.54296875 41.8671875 C-42.37419324 36.75888818 -42.56181503 32.80286146 -42.51953125 26.5859375 C-42.51107178 25.30928223 -42.51107178 25.30928223 -42.50244141 24.00683594 C-42.32855985 14.96155188 -41.41355937 6.8396527 -34.8828125 0.08203125 C-24.33245341 -8.94356732 -10.66346695 -8.45652118 0 0 Z " fill="#F1F6F3" transform="translate(404.20703125,787.3515625)"/>
<path d="M0 0 C17.49 0 34.98 0 53 0 C53 2.97 53 5.94 53 9 C39.14 9 25.28 9 11 9 C11 16.92 11 24.84 11 33 C22.88 33 34.76 33 47 33 C47 35.97 47 38.94 47 42 C35.12 42 23.24 42 11 42 C11 53.55 11 65.1 11 77 C7.37 77 3.74 77 0 77 C0 51.59 0 26.18 0 0 Z " fill="#ECF3F1" transform="translate(265,761)"/>
<path d="M0 0 C2.97 0 5.94 0 9 0 C9.33 8.58 9.66 17.16 10 26 C12.31 24.02 14.62 22.04 17 20 C21.67730665 17.66134667 28.47390139 18.27884624 33.39453125 19.68359375 C38.14917309 21.87454725 41.0091574 24.74031509 44 29 C44.93512434 31.80537303 45.12182907 33.48165364 45.11352539 36.37963867 C45.11344986 37.26032516 45.11337433 38.14101166 45.11329651 39.04838562 C45.10813522 39.99534805 45.10297394 40.94231049 45.09765625 41.91796875 C45.0962413 42.89034988 45.09482635 43.86273102 45.09336853 44.86457825 C45.08776817 47.97225004 45.07521562 51.07984996 45.0625 54.1875 C45.05748505 56.29361875 45.05292213 58.39973863 45.04882812 60.50585938 C45.03779862 65.67060064 45.02053375 70.83528813 45 76 C42.03 76 39.06 76 36 76 C35.9906543 74.78417236 35.98130859 73.56834473 35.97167969 72.31567383 C35.93174582 67.79593545 35.86597746 63.27687532 35.79248047 58.75756836 C35.76429056 56.80323004 35.74306617 54.84877814 35.72900391 52.89428711 C35.70754693 50.08127777 35.66088305 47.26963129 35.609375 44.45703125 C35.60814636 43.58601273 35.60691772 42.7149942 35.60565186 41.81758118 C35.5066725 37.6991453 35.33355673 35.52804636 33.08691406 31.97143555 C29.21309062 28.3119685 25.83834641 28.72469592 20.69921875 28.78515625 C17.33671048 29.05279439 15.50665985 29.72833951 13 32 C9.48951952 36.51654922 9.5306587 40.53313725 9.48828125 46.01953125 C9.47033005 46.87810226 9.45237885 47.73667328 9.43388367 48.6212616 C9.37989259 51.3516251 9.34592126 54.08181492 9.3125 56.8125 C9.279317 58.6686439 9.24482642 60.52476492 9.20898438 62.38085938 C9.12417266 66.92044738 9.05730823 71.45998486 9 76 C6.03 76 3.06 76 0 76 C0 50.92 0 25.84 0 0 Z " fill="#F7F9F9" transform="translate(479,762)"/>
<path d="M0 0 C2.8821156 2.44090284 4.57313586 5.72710806 5.58203125 9.33984375 C5.25203125 10.32984375 4.92203125 11.31984375 4.58203125 12.33984375 C1.61203125 12.33984375 -1.35796875 12.33984375 -4.41796875 12.33984375 C-4.50046875 11.55609375 -4.58296875 10.77234375 -4.66796875 9.96484375 C-5.13977691 7.29667605 -5.13977691 7.29667605 -6.98828125 6.19140625 C-10.333274 5.01904545 -13.54406007 5.04962641 -17.04296875 5.08984375 C-17.72359375 5.08210937 -18.40421875 5.074375 -19.10546875 5.06640625 C-23.21593859 4.97265898 -23.21593859 4.97265898 -26.41796875 7.33984375 C-26.91740287 11.40519717 -26.91740287 11.40519717 -25.20214844 14.94189453 C-23.02064666 16.6511555 -21.25175732 17.13226003 -18.55859375 17.76953125 C-17.13160156 18.12724609 -17.13160156 18.12724609 -15.67578125 18.4921875 C-13.68711608 18.96998368 -11.69754055 19.44400819 -9.70703125 19.9140625 C-3.00687518 21.60264631 2.84647934 23.41888602 6.98828125 29.35546875 C8.41829861 34.13473729 8.6235437 38.97388831 6.58984375 43.59375 C2.86246269 49.14270428 -2.02082606 52.48758796 -8.41796875 54.33984375 C-16.21751794 55.25125175 -23.43588351 55.08024656 -30.41796875 51.33984375 C-33.79168716 48.63935615 -37.1028395 45.54825735 -38.41796875 41.33984375 C-38.54296875 38.08984375 -38.54296875 38.08984375 -38.41796875 35.33984375 C-35.44796875 35.33984375 -32.47796875 35.33984375 -29.41796875 35.33984375 C-29.02609375 36.24734375 -28.63421875 37.15484375 -28.23046875 38.08984375 C-26.25128806 41.63871947 -24.81163885 43.14614539 -21.41796875 45.33984375 C-17.98151495 45.9697183 -17.98151495 45.9697183 -14.35546875 45.83984375 C-13.14761719 45.85015625 -11.93976563 45.86046875 -10.6953125 45.87109375 C-6.87304142 45.25151226 -5.67604474 44.4371069 -3.41796875 41.33984375 C-2.75119997 37.79734324 -2.75119997 37.79734324 -3.41796875 34.33984375 C-6.1205384 31.80844828 -8.68037042 30.76845206 -12.2265625 29.83984375 C-13.13857422 29.59234375 -14.05058594 29.34484375 -14.99023438 29.08984375 C-15.93576172 28.84234375 -16.88128906 28.59484375 -17.85546875 28.33984375 C-31.74660679 24.68878488 -31.74660679 24.68878488 -35.73046875 19.08984375 C-38.06997635 14.60026236 -37.93002745 10.67255562 -36.85546875 5.77734375 C-34.03713155 0.99842415 -30.14367277 -1.95709165 -25.04296875 -4.03515625 C-16.1010669 -5.57686347 -7.92365673 -4.73988495 0 0 Z " fill="#F0F5F2" transform="translate(459.41796875,785.66015625)"/>
<path d="M0 0 C2.5 1 2.5 1 4 2 C3.125 7.75 3.125 7.75 2 10 C-0.109375 10.2734375 -0.109375 10.2734375 -2.75 10.375 C-7.33638462 10.74846275 -9.79610026 11.49573466 -13 15 C-15.66847788 18.86698127 -15.34961975 23.18112044 -15.4140625 27.703125 C-15.43342865 28.54091492 -15.4527948 29.37870483 -15.4727478 30.24188232 C-15.53240724 32.91115213 -15.57887413 35.58046539 -15.625 38.25 C-15.66319236 40.06251854 -15.70224482 41.87501918 -15.7421875 43.6875 C-15.83809752 48.12485415 -15.9221788 52.56229325 -16 57 C-18.97 57 -21.94 57 -25 57 C-25 38.52 -25 20.04 -25 1 C-22.03 1 -19.06 1 -16 1 C-15.67 2.98 -15.34 4.96 -15 7 C-14.21625 6.030625 -13.4325 5.06125 -12.625 4.0625 C-9.02086084 -0.39525107 -5.58826232 -0.47489186 0 0 Z " fill="#F9FAFA" transform="translate(354,781)"/>
<path d="M0 0 C2.97 0 5.94 0 9 0 C9 25.08 9 50.16 9 76 C6.03 76 3.06 76 0 76 C0 50.92 0 25.84 0 0 Z " fill="#F8FAFA" transform="translate(750,762)"/>
<path d="M0 0 C0.86025979 11.81423451 0.86025979 11.81423451 -2.125 15.5625 C-7.54298505 20.15600906 -11.63763929 21.51473244 -18.66015625 21.29296875 C-21.73574879 20.90787786 -23.63656413 19.99414901 -26 18 C-28.34549674 14.48175489 -28.57991403 13.14224306 -28 9 C-24.48306297 4.16421158 -20.6627441 2.95304353 -15 2 C-13.98421875 1.81566406 -12.9684375 1.63132812 -11.921875 1.44140625 C-3.69094828 0 -3.69094828 0 0 0 Z " fill="#247858" transform="translate(725,811)"/>
<path d="M0 0 C2.89698761 2.02977657 4.30348752 4.07996958 5.80078125 7.26171875 C5.80078125 9.57171875 5.80078125 11.88171875 5.80078125 14.26171875 C-4.42921875 14.26171875 -14.65921875 14.26171875 -25.19921875 14.26171875 C-24.20565509 6.31320951 -23.75953244 4.14559525 -18.19921875 -0.73828125 C-12.1215364 -4.32255545 -5.92732863 -3.28017215 0 0 Z " fill="#2D7E5F" transform="translate(663.19921875,791.73828125)"/>
<path d="M0 0 C4.10720255 2.08154143 7.16891285 4.58022612 9.5 8.5625 C10 11 10 11 10 16 C0.1 16 -9.8 16 -20 16 C-18 6 -18 6 -15.0625 2.9375 C-10.15972809 -0.16425366 -5.69376013 -0.97344931 0 0 Z " fill="#247958" transform="translate(392,789)"/>
<path d="M0 0 C-6.30108184 2.2377139 -12.60414822 3.91677089 -19.125 5.375 C-27.96861514 7.42109661 -36.46257431 9.8910516 -45 13 C-46.12921875 13.40089844 -47.2584375 13.80179687 -48.421875 14.21484375 C-53.91478954 16.23278067 -58.90180081 18.44734124 -63.9375 21.4375 C-68.53468753 24.07886652 -68.53468753 24.07886652 -72.6875 23.375 C-73.450625 22.92125 -74.21375 22.4675 -75 22 C-72.93237202 19.93237202 -71.63001904 19.29995809 -68.95703125 18.23046875 C-67.72968262 17.73716064 -67.72968262 17.73716064 -66.47753906 17.23388672 C-65.59807617 16.8885791 -64.71861328 16.54327148 -63.8125 16.1875 C-62.90338867 15.82930176 -61.99427734 15.47110352 -61.05761719 15.10205078 C-12.07282658 -4.02427553 -12.07282658 -4.02427553 0 0 Z " fill="#B6C0C0" transform="translate(368,443)"/>
<path d="M0 0 C2.86801846 0.08864784 3.78417611 0.16414857 6.125 1.9375 C7.46661569 5.4257008 6.98928615 7.80025344 6.0625 11.375 C2.35834707 13.84443529 0.44105495 13.84413089 -3.9375 13.375 C-5.9375 11.8125 -5.9375 11.8125 -6.9375 9.375 C-6.6274447 3.38059754 -6.43322862 0.61268844 0 0 Z " fill="#2E7E62" transform="translate(507.9375,220.625)"/>
<path d="M0 0 C15.11539408 0.38135169 29.89859027 5.49371267 44.125 10.1875 C45.69930786 10.70485718 45.69930786 10.70485718 47.30541992 11.23266602 C48.27970947 11.56194092 49.25399902 11.89121582 50.2578125 12.23046875 C51.55936279 12.66975708 51.55936279 12.66975708 52.88720703 13.11791992 C55 14 55 14 57 16 C56.67 16.66 56.34 17.32 56 18 C51.2849417 16.45858021 46.59435894 14.86708541 41.93359375 13.16796875 C28.14605452 8.17754845 14.28482266 4.29372455 0 1 C0 0.67 0 0.34 0 0 Z " fill="#B3BCBC" transform="translate(659,443)"/>
<path d="M0 0 C-0.50337891 0.27674561 -1.00675781 0.55349121 -1.52539062 0.83862305 C-3.85155786 2.11924101 -6.17578057 3.40335055 -8.5 4.6875 C-9.29148437 5.12255859 -10.08296875 5.55761719 -10.8984375 6.00585938 C-16.03703426 8.84893545 -21.0547317 11.83247039 -26 15 C-26.99 13.02 -27.98 11.04 -29 9 C-25.95992315 7.70456897 -22.91766448 6.41434023 -19.875 5.125 C-19.0190625 4.76019531 -18.163125 4.39539063 -17.28125 4.01953125 C-4.58058716 -1.35382611 -4.58058716 -1.35382611 0 0 Z " fill="#367E63" transform="translate(609,366)"/>
<path d="M0 0 C2.97 0 5.94 0 9 0 C9.33 1.98 9.66 3.96 10 6 C10.78375 5.01 11.5675 4.02 12.375 3 C13.24125 2.01 14.1075 1.02 15 0 C15.66 0 16.32 0 17 0 C15.55873214 3.36295835 13.79407345 5.62927102 11 8 C10.01 8 9.02 8 8 8 C8 5.69 8 3.38 8 1 C5.69 1 3.38 1 1 1 C1 19.15 1 37.3 1 56 C0.67 56 0.34 56 0 56 C0 37.52 0 19.04 0 0 Z " fill="#E4EAE9" transform="translate(329,782)"/>
<path d="M0 0 C2 2 2 2 2.25 4.5 C2 7 2 7 0 9 C-3 9.25 -3 9.25 -6 9 C-6.66 8.34 -7.32 7.68 -8 7 C-7.75 3.4375 -7.75 3.4375 -7 0 C-4.29393021 -1.35303489 -2.8671629 -0.7884698 0 0 Z " fill="#2B7D5E" transform="translate(449,287)"/>
<path d="M0 0 C0.66 0.33 1.32 0.66 2 1 C-4.10180751 7.70766073 -10.25177096 14.36083122 -16.625 20.8125 C-17.13321289 21.33360352 -17.64142578 21.85470703 -18.16503906 22.39160156 C-19.40448718 23.63442004 -20.69788227 24.82300433 -22 26 C-22.66 26 -23.32 26 -24 26 C-24 26.66 -24 27.32 -24 28 C-24.66 28 -25.32 28 -26 28 C-24.44524309 24.18377849 -21.88495171 21.82468288 -19 19 C-17.45044077 17.4532063 -15.90241505 15.90487564 -14.35546875 14.35546875 C-9.5703125 9.5703125 -4.78515625 4.78515625 0 0 Z " fill="#2E7E61" transform="translate(129,103)"/>
<path d="M0 0 C-6.45965017 2.2926123 -12.94600159 4.03710915 -19.625 5.5625 C-25.46307513 6.90942733 -31.25583925 8.2924892 -37 10 C-37.33 9.01 -37.66 8.02 -38 7 C-34.23070215 6.03556057 -30.45929943 5.07960492 -26.6875 4.125 C-25.63498047 3.85558594 -24.58246094 3.58617187 -23.49804688 3.30859375 C-4.47397658 -1.49132553 -4.47397658 -1.49132553 0 0 Z " fill="#719B8F" transform="translate(368,443)"/>
<path d="M0 0 C1.125 3.75 1.125 3.75 0 6 C0.66 6 1.32 6 2 6 C2 5.34 2 4.68 2 4 C2.66 4.33 3.32 4.66 4 5 C3.45730469 5.88042969 2.91460937 6.76085937 2.35546875 7.66796875 C1.6327974 8.84113653 0.91014199 10.01431414 0.1875 11.1875 C-0.16892578 11.76564453 -0.52535156 12.34378906 -0.89257812 12.93945312 C-2.94994799 16.28031978 -4.9888246 19.63112259 -7 23 C-8.39953172 18.80140483 -6.74567611 15.99135489 -5.1875 12.0625 C-4.91357422 11.34642578 -4.63964844 10.63035156 -4.35742188 9.89257812 C-3.05075906 6.51154893 -1.71313912 3.20064528 0 0 Z " fill="#D1DDD9" transform="translate(460,514)"/>
<path d="M0 0 C4.78642607 0.5746621 8.53788787 1.98245643 12.875 4.0625 C14.60363281 4.88427734 14.60363281 4.88427734 16.3671875 5.72265625 C17.67042969 6.35494141 17.67042969 6.35494141 19 7 C16 8 16 8 13.8125 7.0625 C13.214375 6.711875 12.61625 6.36125 12 6 C12 6.66 12 7.32 12 8 C12.66 8 13.32 8 14 8 C13.67 8.66 13.34 9.32 13 10 C8.71 7.69 4.42 5.38 0 3 C0 2.01 0 1.02 0 0 Z " fill="#B8C2C0" transform="translate(715,459)"/>
<path d="M0 0 C-4.95 2.64 -9.9 5.28 -15 8 C-15 7.34 -15 6.68 -15 6 C-16.65 6.66 -18.3 7.32 -20 8 C-20.66 7.34 -21.32 6.68 -22 6 C-20.12616097 5.20558928 -18.25087114 4.41460026 -16.375 3.625 C-14.80878906 2.96371094 -14.80878906 2.96371094 -13.2109375 2.2890625 C-4.62745098 -1.15686275 -4.62745098 -1.15686275 0 0 Z " fill="#53947B" transform="translate(609,366)"/>
<path d="M0 0 C0 0.66 0 1.32 0 2 C-7.87746171 7.2166302 -7.87746171 7.2166302 -12.5625 6.3125 C-13.7690625 5.6628125 -13.7690625 5.6628125 -15 5 C-10.80265327 0.80265327 -5.80003952 -0.42439314 0 0 Z " fill="#B6C3C2" transform="translate(308,460)"/>
<path d="M0 0 C7.95398808 0.45406625 15.32797907 1.87111461 23 4 C22.67 4.66 22.34 5.32 22 6 C14.59225491 4.60695059 7.29829463 2.88100377 0 1 C0 0.67 0 0.34 0 0 Z " fill="#7DA596" transform="translate(659,443)"/>
<path d="M0 0 C6.43681228 0.51085812 11.95942424 1.72942897 18 4 C17.67 4.99 17.34 5.98 17 7 C8.585 4.03 8.585 4.03 0 1 C0 0.67 0 0.34 0 0 Z " fill="#A3B4B1" transform="translate(681,448)"/>
<path d="M0 0 C2.97 0 5.94 0 9 0 C9.33 1.98 9.66 3.96 10 6 C10.78375 5.01 11.5675 4.02 12.375 3 C13.24125 2.01 14.1075 1.02 15 0 C15.66 0 16.32 0 17 0 C15.55873214 3.36295835 13.79407345 5.62927102 11 8 C10.01 8 9.02 8 8 8 C8 5.69 8 3.38 8 1 C5.36 1 2.72 1 0 1 C0 0.67 0 0.34 0 0 Z " fill="#BAD1C9" transform="translate(329,782)"/>
<path d="M0 0 C0.66 0.33 1.32 0.66 2 1 C-2.29 5.29 -6.58 9.58 -11 14 C-11.33 13.34 -11.66 12.68 -12 12 C-8.27653164 7.57905197 -4.70478962 3.42166518 0 0 Z " fill="#D6E2DD" transform="translate(503,215)"/>
<path d="M0 0 C-1.4022578 2.8045156 -3.06070622 3.0442118 -5.9375 4.1875 C-6.83339844 4.55230469 -7.72929687 4.91710937 -8.65234375 5.29296875 C-11 6 -11 6 -13 5 C-13.33 4.34 -13.66 3.68 -14 3 C-4.58997722 -0.44419134 -4.58997722 -0.44419134 0 0 Z " fill="#A8B9B8" transform="translate(332,451)"/>
<path d="M0 0 C0.33 1.32 0.66 2.64 1 4 C-1.475 5.485 -1.475 5.485 -4 7 C-4.33 6.34 -4.66 5.68 -5 5 C-5.99 4.34 -6.98 3.68 -8 3 C-5.36095629 1.58622659 -2.92879371 0.62759865 0 0 Z " fill="#C4CDCC" transform="translate(296,464)"/>
<path d="M0 0 C0.66 0.33 1.32 0.66 2 1 C-1.3 4.3 -4.6 7.6 -8 11 C-8 6.67750434 -5.85084926 5.11604454 -3 2 C-2.01 1.34 -1.02 0.68 0 0 Z " fill="#CDDBD8" transform="translate(374,784)"/>
<path d="M0 0 C-1.44077046 3.36179774 -3.24750021 5.59156268 -6 8 C-6.66 8 -7.32 8 -8 8 C-7.65978036 4.82461668 -6.97533396 3.97723135 -4.5625 1.75 C-2 0 -2 0 0 0 Z " fill="#3E886D" transform="translate(382,790)"/>
<path d="M0 0 C0.66 0.33 1.32 0.66 2 1 C-1.3 4.3 -4.6 7.6 -8 11 C-8 7.0234755 -6.61988497 5.9109833 -4 3 C-1.75 1.1875 -1.75 1.1875 0 0 Z " fill="#CADBD6" transform="translate(640,784)"/>
<path d="M0 0 C-1 3 -1 3 -4.0625 4.6875 C-5.031875 5.120625 -6.00125 5.55375 -7 6 C-7.33 5.01 -7.66 4.02 -8 3 C-6.23110084 -0.53779831 -3.70375662 0 0 0 Z " fill="#267358" transform="translate(594,372)"/>
<path d="M0 0 C0.66 0.33 1.32 0.66 2 1 C0.92643323 2.15498897 -0.15929788 3.29867867 -1.25 4.4375 C-1.85328125 5.07558594 -2.4565625 5.71367188 -3.078125 6.37109375 C-5.10048016 8.08516306 -6.41270605 8.59358878 -9 9 C-6 6 -3 3 0 0 Z " fill="#37856B" transform="translate(692,605)"/>
<path d="M0 0 C0.66 0.33 1.32 0.66 2 1 C0.02 3.97 0.02 3.97 -2 7 C-3.32 6.01 -4.64 5.02 -6 4 C-4.02 2.68 -2.04 1.36 0 0 Z " fill="#BFD7D1" transform="translate(744,541)"/>
<path d="M0 0 C0.66 0.33 1.32 0.66 2 1 C1.50628906 1.40992188 1.01257813 1.81984375 0.50390625 2.2421875 C-0.13675781 2.78101563 -0.77742188 3.31984375 -1.4375 3.875 C-2.07558594 4.40867187 -2.71367187 4.94234375 -3.37109375 5.4921875 C-5.10805004 6.9222757 -5.10805004 6.9222757 -6 9 C-6.66 8.67 -7.32 8.34 -8 8 C-5.58443874 4.80800833 -3.31996462 2.25283313 0 0 Z " fill="#C2D6CE" transform="translate(442,282)"/>
<path d="M0 0 C-2.93828597 2.50298434 -5.17902761 3.46930939 -9 4 C-9.33 3.01 -9.66 2.02 -10 1 C-6.59437148 0.22157062 -3.49234244 -0.09978121 0 0 Z " fill="#90ABA5" transform="translate(340,449)"/>
<path d="M0 0 C0.66 0.33 1.32 0.66 2 1 C1.21654285 2.17219543 0.42297164 3.33763668 -0.375 4.5 C-0.81585938 5.1496875 -1.25671875 5.799375 -1.7109375 6.46875 C-2.13632812 6.9740625 -2.56171875 7.479375 -3 8 C-3.66 8 -4.32 8 -5 8 C-3.8141763 4.62496331 -2.72426311 2.35277269 0 0 Z " fill="#418A6F" transform="translate(344,792)"/>
<path d="M0 0 C3.4375 0.8125 3.4375 0.8125 7 2 C7.33 2.99 7.66 3.98 8 5 C5.03 4.505 5.03 4.505 2 4 C2 3.34 2 2.68 2 2 C1.34 2 0.68 2 0 2 C0 1.34 0 0.68 0 0 Z " fill="#D9DBD9" transform="translate(727,465)"/>
<path d="M0 0 C0 0.99 0 1.98 0 3 C-2.60582371 3.93065133 -3.64198224 4.14917407 -6.25 3.0625 C-6.8275 2.711875 -7.405 2.36125 -8 2 C-5.09399739 0.74335022 -3.20395416 0 0 0 Z " fill="#ACBCBB" transform="translate(312,457)"/>
<path d="M0 0 C0.66 0.33 1.32 0.66 2 1 C0.02 3.31 -1.96 5.62 -4 8 C-4.66 7.67 -5.32 7.34 -6 7 C-4.02 4.69 -2.04 2.38 0 0 Z " fill="#388569" transform="translate(409,828)"/>
<path d="M0 0 C-1.15173355 2.46800047 -2.04783565 4.04783565 -4 6 C-4.99 5.67 -5.98 5.34 -7 5 C-2.25 0 -2.25 0 0 0 Z " fill="#2F7F60" transform="translate(484,496)"/>
</svg>
